# xmcd CD database file
#
# Track frame offsets:
#	150
#	15897
#	43616
#	89492
#	121488
#	146799
#	172696
#	201060
#
# Disc length: 3146 seconds
#
# Revision: 0
# Processed by: cddbd v1.5.2PL0 Copyright (c) Steve Scherf et al.
# Submitted via: CDex 1.70beta2
#
DISCID=600c4808
DTITLE=The Catholics - Village
DYEAR=2007
DGENRE=Jazz
TTITLE0=Salaam
TTITLE1=Half a Shark
TTITLE2=Sugarloaf
TTITLE3=Pelicans
TTITLE4=Grace
TTITLE5=D's Blues
TTITLE6=Sun Dance
TTITLE7=Ransome
EXTD=YEAR: 2007
EXTT0=
EXTT1=
EXTT2=
EXTT3=
EXTT4=
EXTT5=
EXTT6=
EXTT7=
PLAYORDER=
